<svg id="Layer_1" data-name="Layer 1" xmlns="http://www.w3.org/2000/svg" viewBox="0 0 789.38 609.38"><defs><style>.cls-1{fill:#f0f0f0;}.cls-2{fill:#fff;}.cls-3{fill:#9e616a;}.cls-4{fill:#2f2e41;}.cls-5{fill:#e4e4e4;}.cls-6{fill:#e6e6e6;}.cls-7{fill:#4aa576;}.cls-8{fill:#a5dbba;}.cls-9{fill:#cacaca;}</style></defs><path class="cls-1" d="M776,528.67c-3.32-26.68-19.85-53-45.29-61.64a123.87,123.87,0,0,1,0,85c-3.91,10.57-9.36,21.93-5.68,32.58,2.29,6.64,7.88,11.71,14.14,14.88s13.2,4.69,20.06,6.17l1.35,1.12C771.45,582.24,779.32,555.35,776,528.67Z" transform="translate(0)"/><path class="cls-2" d="M730.45,467.53a105.82,105.82,0,0,1,26.32,59.58,45.32,45.32,0,0,1-.52,14.28,26.12,26.12,0,0,1-6.5,12.13c-2.93,3.22-6.3,6.17-8.4,10.05a16,16,0,0,0-.78,13.07c1.85,5.31,5.5,9.64,9.22,13.75,4.12,4.56,8.48,9.24,10.23,15.28.22.74,1.34.37,1.13-.37-3-10.52-13.27-16.5-18.14-26-2.27-4.42-3.23-9.56-1.1-14.22,1.87-4.09,5.34-7.14,8.34-10.37a28,28,0,0,0,6.8-11.62,42,42,0,0,0,1.06-14.21,102.79,102.79,0,0,0-7.5-31.21,107.76,107.76,0,0,0-19.37-31.05C730.73,466.07,730,467,730.45,467.53Z" transform="translate(0)"/><path class="cls-2" d="M756.45,519.94a15.88,15.88,0,0,0,12.09-16.64.59.59,0,0,0-1.18.06,14.71,14.71,0,0,1-11.28,15.46C755.34,519,755.72,520.12,756.45,519.94Z" transform="translate(0)"/><path class="cls-2" d="M751.45,552.08a30.63,30.63,0,0,1-13.67-17.63c-.22-.73-1.34-.36-1.13.37a31.89,31.89,0,0,0,14.27,18.32C751.58,553.53,752.1,552.47,751.45,552.08Z" transform="translate(0)"/><path class="cls-2" d="M744.87,487.43a9,9,0,0,1-8.52-.43c-.65-.4-1.18.66-.53,1.06a10.05,10.05,0,0,0,9.42.5.61.61,0,0,0,.38-.75.6.6,0,0,0-.75-.38Z" transform="translate(0)"/><path class="cls-1" d="M653.15,514.68l1.2.79a117.53,117.53,0,0,1,15.14,11.82l1.1,1a124.53,124.53,0,0,1,27.11,37.11,120,120,0,0,1,6.64,17.18c2.45,8.13,4.46,17.14,9.31,23.79a22.12,22.12,0,0,0,1.62,2H759.1l.3-.14,1.75.08c-.07-.31-.15-.63-.22-.94s-.09-.36-.13-.54-.06-.24-.08-.35l0-.11c0-.11-.05-.21-.07-.31q-.66-2.69-1.36-5.37v0c-3.59-13.63-8.35-27.08-15-39.38-.2-.37-.4-.75-.62-1.12a115.32,115.32,0,0,0-10.39-15.76,102.87,102.87,0,0,0-6.81-7.79,84.68,84.68,0,0,0-21.28-15.94c-15.72-8.3-33.92-11.48-50.72-6.41Z" transform="translate(0)"/><path class="cls-2" d="M653.25,515.23A105.92,105.92,0,0,1,710.14,547a45.85,45.85,0,0,1,8.18,11.71,26.23,26.23,0,0,1,2.11,13.6c-.4,4.34-1.32,8.73-.66,13.08A16,16,0,0,0,727,596.26c4.67,3.13,10.19,4.39,15.64,5.43,6,1.16,12.33,2.27,17.37,6,.61.46,1.29-.52.68-1-8.77-6.57-20.53-5.19-30.13-9.83-4.48-2.16-8.33-5.69-9.44-10.7-1-4.38,0-8.91.41-13.29A28,28,0,0,0,720,559.56a42.39,42.39,0,0,0-7.7-12,102.66,102.66,0,0,0-24.79-20.4,107.86,107.86,0,0,0-34.16-13.13c-.74-.15-.83,1-.09,1.18Z" transform="translate(0)"/><path class="cls-2" d="M705.57,541.43a15.9,15.9,0,0,0-.37-20.57c-.5-.57-1.41.19-.91.76a14.71,14.71,0,0,1,.3,19.13c-.48.59.49,1.26,1,.68Z" transform="translate(0)"/><path class="cls-2" d="M720.92,570.1a30.6,30.6,0,0,1-21.53-5.85c-.61-.45-1.29.52-.68,1a31.87,31.87,0,0,0,22.42,6c.76-.08.55-1.25-.21-1.16Z" transform="translate(0)"/><path class="cls-2" d="M676.75,522.44a9,9,0,0,1-7.07,4.79c-.76.07-.54,1.24.21,1.16a10,10,0,0,0,7.83-5.27.62.62,0,0,0-.15-.83A.6.6,0,0,0,676.75,522.44Z" transform="translate(0)"/><path class="cls-3" d="M438.7,32.6a11.55,11.55,0,0,0,1.79,16.24,10.68,10.68,0,0,0,1.7,1.13l-6.76,40.5,19.5-8.65,3.43-37.14A11.62,11.62,0,0,0,438.7,32.6Z" transform="translate(0)"/><polygon class="cls-3" points="614.15 592.88 598.2 592.88 590.62 531.38 614.15 531.38 614.15 592.88"/><path class="cls-4" d="M618.21,608.34H566.8v-.65a20,20,0,0,1,20-20h31.4Z" transform="translate(0)"/><polygon class="cls-3" points="507.15 592.88 491.2 592.88 483.62 531.38 507.15 531.38 507.15 592.88"/><path class="cls-4" d="M511.21,608.34H459.8v-.65a20,20,0,0,1,20-20h31.4Z" transform="translate(0)"/><path class="cls-4" d="M500.5,305.88l-6,7.84S494,317.38,485,347.2l-5,224.18h30L550.1,392l41.62,183,26,1.54-1.22-208s3.29-42.78-8.36-50.73S500.5,305.88,500.5,305.88Z" transform="translate(0)"/><circle class="cls-3" cx="540.73" cy="86.01" r="31.48" transform="translate(369.21 605.98) rotate(-80.78)"/><path class="cls-4" d="M572.4,90.94l-.52-1c-.8-1.61-7.46-15-8.29-18.41l-8.38,1H533.39l3-4.55-8,1a18.31,18.31,0,0,0-8.17,3.08,12.57,12.57,0,0,0-3.7,3.81c-2.86,4.91-7.24,12.93-7.28,13l-.42.76-3.63-6.11c0-.24-4.56-23.73,10.52-31.7.78-1.58,7.4-14,23.06-13.16a9.94,9.94,0,0,1,6.75-3.36c3.57-.18,7.29,1.7,11,5.61,5,5.2,11.74,12.32,15.84,20.23l1.13,1.61a12.71,12.71,0,0,1,2.26,7.9,26.37,26.37,0,0,1-.89,13.45Z" transform="translate(0)"/><path class="cls-5" d="M564.72,123.42,582.14,133l34.22,9.59-10.22,89.54L608,320.38s-57.92,39.67-113.46-6.66v-111l3.29-60.06s13.29-3.78,20,2.73l12.69-16.48Z" transform="translate(0)"/><polygon class="cls-5" points="505.5 150.88 497.82 142.63 455.53 137.84 459.5 72.88 436.44 56.43 419.5 147.88 497.76 202.69 505.5 150.88"/><path class="cls-3" d="M591.23,349.52a11.55,11.55,0,0,1,9.2-13.5,11.35,11.35,0,0,1,2-.21l13-38.93,13.17,16.78-14.38,34.41a11.62,11.62,0,0,1-23,1.45Z" transform="translate(0)"/><path class="cls-5" d="M603.5,152.88l12.86-10.25s13.14,7.25,17.14,20.25,11,87,11,87l-19,95-21.25-14.74,10.25-75.26-18-55Z" transform="translate(0)"/><rect class="cls-6" x="118.14" width="324.2" height="78.78"/><path class="cls-2" d="M126.65,70.28H433.84V8.51H126.65Z" transform="translate(0)"/><circle class="cls-7" cx="185.16" cy="39.39" r="23.53"/><rect class="cls-7" x="241.43" y="30.18" width="157.43" height="5.12"/><rect class="cls-7" x="241.43" y="43.48" width="157.43" height="5.12"/><path id="b9910470-ced5-4346-b4bb-f41b58844e24-98" class="cls-6" d="M0,119.74l274.31,20v72L0,206.68Z" transform="translate(0)"/><path id="bc7e8449-b99b-4317-a70a-91d17db61b29-99" class="cls-2" d="M8.64,197.51l259.69,6.35V147.13L8.64,129.71Z" transform="translate(0)"/><path id="a430bd6b-b2b0-4af3-a079-7f5fd15b0624-100" class="cls-8" d="M65.64,141.31a20.6,20.6,0,0,1,8.55,2.48,23.78,23.78,0,0,1,6.92,5.7,26.79,26.79,0,0,1,4.62,8.07,27.9,27.9,0,0,1,1.69,9.65,26.75,26.75,0,0,1-1.69,9.49,23.77,23.77,0,0,1-4.62,7.65,20.87,20.87,0,0,1-6.92,5.07,19.21,19.21,0,0,1-8.55,1.69A20.4,20.4,0,0,1,57,188.89a23.58,23.58,0,0,1-7.13-5.61A26.54,26.54,0,0,1,45,175.09a28.15,28.15,0,0,1-1.79-9.9A26.81,26.81,0,0,1,45,155.45a23.9,23.9,0,0,1,4.85-7.75,20.64,20.64,0,0,1,7.14-5A19.37,19.37,0,0,1,65.64,141.31Z" transform="translate(0)"/><path id="af019097-0949-417a-9d8d-f710312ce60c-101" class="cls-8" d="M116.73,159.13l126.39,6.59v4.79l-126.39-6.14Z" transform="translate(0)"/><path id="f94f3612-92b8-42d6-ae14-2a9ea684588e-102" class="cls-8" d="M116.73,172.74l126.39,5.43V183l-126.39-5Z" transform="translate(0)"/><path id="bb553635-e14d-4b1e-b72c-855829e3ad86-103" class="cls-6" d="M0,266.05,274.31,261v72L0,353Z" transform="translate(0)"/><path id="e92d7e39-9dcb-4c0c-b0b9-55aac094bc0c-104" class="cls-2" d="M8.64,343l259.69-17.42V268.88L8.64,275.24Z" transform="translate(0)"/><path id="f8649409-803b-4d56-993a-4da6ceb3c345-105" class="cls-8" d="M43.23,306.4a28.14,28.14,0,0,1,2.18-9.82,26.66,26.66,0,0,1,5.17-7.94,23.3,23.3,0,0,1,7.34-5.25,20.27,20.27,0,0,1,8.71-1.78,19.44,19.44,0,0,1,8.46,2.13,21.18,21.18,0,0,1,6.69,5.42,24.15,24.15,0,0,1,4.31,7.9,27.29,27.29,0,0,1,1.31,9.58,28.3,28.3,0,0,1-2.07,9.56,26.62,26.62,0,0,1-4.94,7.86,23.6,23.6,0,0,1-7.13,5.36,20.48,20.48,0,0,1-8.63,2,19.42,19.42,0,0,1-8.58-1.88,21.17,21.17,0,0,1-6.91-5.33,24.08,24.08,0,0,1-4.52-8A26.93,26.93,0,0,1,43.23,306.4Z" transform="translate(0)"/><path id="f70c4d59-0dd2-4f0b-ba41-17bf719deab5-106" class="cls-8" d="M116.73,294.76l126.39-5v4.79L116.73,300Z" transform="translate(0)"/><path id="ba176e8f-fd02-45f1-a5f1-dcef4bb8b7ed-107" class="cls-8" d="M116.73,308.37l126.39-6.14V307L116.73,313.6Z" transform="translate(0)"/><path class="cls-9" d="M788.38,609.38h-381a1,1,0,0,1,0-2h381a1,1,0,0,1,0,2Z" transform="translate(0)"/></svg>